{
	"asset":{
		"generator":"Khronos glTF Blender I/O v3.6.28",
		"version":"2.0"
	},
	"extensionsUsed":[
		"KHR_materials_specular",
		"KHR_materials_ior"
	],
	"scene":0,
	"scenes":[
		{
			"name":"Scene",
			"nodes":[
				0,
				1,
				2,
				3,
				4,
				5,
				6,
				7
			]
		}
	],
	"nodes":[
		{
			"mesh":0,
			"name":"Tampa",
			"scale":[
				0.1588868498802185,
				0.09585336595773697,
				0.15888680517673492
			],
			"translation":[
				-0.7181649208068848,
				-0.2596030831336975,
				0.09402664750814438
			]
		},
		{
			"mesh":1,
			"name":"Bolt.001",
			"scale":[
				0.017485395073890686,
				0.017485395073890686,
				0.017485395073890686
			],
			"translation":[
				-1.6043978929519653,
				-0.2670762240886688,
				0.09402664005756378
			]
		},
		{
			"mesh":2,
			"name":"Sphere",
			"scale":[
				0.32240453362464905,
				0.2623460590839386,
				0.32240453362464905
			],
			"translation":[
				-0.7474855780601501,
				0.23430627584457397,
				0
			]
		},
		{
			"mesh":3,
			"name":"Sphere.001",
			"scale":[
				0.32240453362464905,
				0.32240453362464905,
				0.32240453362464905
			],
			"translation":[
				-1.6014132499694824,
				0.23445725440979004,
				0
			]
		},
		{
			"mesh":4,
			"name":"Sphere.002",
			"scale":[
				0.32240453362464905,
				0.32240453362464905,
				0.32240453362464905
			],
			"translation":[
				-2.4682869911193848,
				0.23445725440979004,
				0
			]
		},
		{
			"mesh":5,
			"name":"Sphere.003",
			"scale":[
				0.3626483380794525,
				0.3626483380794525,
				0.3626483380794525
			],
			"translation":[
				-3.4275546073913574,
				0.23445725440979004,
				0
			]
		},
		{
			"mesh":6,
			"name":"Sphere.004",
			"scale":[
				0.3626483380794525,
				0.3626483380794525,
				0.3626483380794525
			],
			"translation":[
				-4.38682222366333,
				0.23445725440979004,
				0
			]
		},
		{
			"mesh":7,
			"name":"Tampa.001",
			"scale":[
				0.1588868498802185,
				0.09585336595773697,
				0.15888680517673492
			],
			"translation":[
				-1.2107895612716675,
				-0.2596030831336975,
				0.09402664750814438
			]
		}
	],
	"materials":[
		{
			"doubleSided":true,
			"extensions":{
				"KHR_materials_specular":{
					"specularColorFactor":[
						0.3470279659849737,
						0.3470279659849737,
						0.3470279659849737
					]
				},
				"KHR_materials_ior":{
					"ior":1.4500000476837158
				}
			},
			"name":"Tampa.001",
			"normalTexture":{
				"index":0
			},
			"pbrMetallicRoughness":{
				"baseColorTexture":{
					"index":1
				},
				"metallicFactor":0,
				"roughnessFactor":0.43292683362960815
			}
		},
		{
			"doubleSided":true,
			"extensions":{
				"KHR_materials_specular":{
					"specularColorFactor":[
						2.371357614441398,
						2.371357614441398,
						2.371357614441398
					]
				},
				"KHR_materials_ior":{
					"ior":1.4500000476837158
				}
			},
			"name":"Material",
			"pbrMetallicRoughness":{
				"baseColorFactor":[
					0.17335253953933716,
					0.17335253953933716,
					0.17335253953933716,
					1
				],
				"metallicFactor":0.5,
				"roughnessFactor":0.5
			}
		},
		{
			"doubleSided":true,
			"extensions":{
				"KHR_materials_specular":{
					"specularColorFactor":[
						0.3470279659849737,
						0.3470279659849737,
						0.3470279659849737
					]
				},
				"KHR_materials_ior":{
					"ior":1.4500000476837158
				}
			},
			"name":"Tampa.002",
			"normalTexture":{
				"index":2
			},
			"pbrMetallicRoughness":{
				"baseColorTexture":{
					"index":3
				},
				"metallicFactor":0,
				"roughnessFactor":0.43292683362960815
			}
		}
	],
	"meshes":[
		{
			"name":"Cylinder",
			"primitives":[
				{
					"attributes":{
						"POSITION":0,
						"NORMAL":1,
						"TEXCOORD_0":2
					},
					"indices":3,
					"material":0
				}
			]
		},
		{
			"name":"Bolt.001",
			"primitives":[
				{
					"attributes":{
						"POSITION":4,
						"NORMAL":5
					},
					"indices":6,
					"material":1
				}
			]
		},
		{
			"name":"Sphere",
			"primitives":[
				{
					"attributes":{
						"POSITION":7,
						"NORMAL":8,
						"TEXCOORD_0":9
					},
					"indices":10,
					"material":1
				}
			]
		},
		{
			"name":"Sphere.001",
			"primitives":[
				{
					"attributes":{
						"POSITION":11,
						"NORMAL":12,
						"TEXCOORD_0":13
					},
					"indices":14,
					"material":1
				}
			]
		},
		{
			"name":"Sphere.002",
			"primitives":[
				{
					"attributes":{
						"POSITION":15,
						"NORMAL":16,
						"TEXCOORD_0":17
					},
					"indices":18,
					"material":1
				}
			]
		},
		{
			"name":"Sphere.003",
			"primitives":[
				{
					"attributes":{
						"POSITION":19,
						"NORMAL":20,
						"TEXCOORD_0":21
					},
					"indices":22,
					"material":1
				}
			]
		},
		{
			"name":"Sphere.004",
			"primitives":[
				{
					"attributes":{
						"POSITION":23,
						"NORMAL":24,
						"TEXCOORD_0":25
					},
					"indices":26,
					"material":1
				}
			]
		},
		{
			"name":"Cylinder.001",
			"primitives":[
				{
					"attributes":{
						"POSITION":27,
						"NORMAL":28,
						"TEXCOORD_0":29
					},
					"indices":3,
					"material":2
				}
			]
		}
	],
	"textures":[
		{
			"sampler":0,
			"source":0
		},
		{
			"sampler":0,
			"source":1
		},
		{
			"sampler":0,
			"source":0
		},
		{
			"sampler":0,
			"source":2
		}
	],
	"images":[
		{
			"mimeType":"image/png",
			"name":"Tx_Tamp_Normal",
			"uri":"Tx_Tamp_Normal.png"
		},
		{
			"mimeType":"image/png",
			"name":"Tx_Tamp_Color",
			"uri":"Tx_Tamp_Color.png"
		},
		{
			"mimeType":"image/png",
			"name":"Tx_Tamp_Color2",
			"uri":"Tx_Tamp_Color2.png"
		}
	],
	"accessors":[
		{
			"bufferView":0,
			"componentType":5126,
			"count":1132,
			"max":[
				1.2394579648971558,
				0.8976383209228516,
				1.2394579648971558
			],
			"min":[
				-1.2394579648971558,
				-0.8968937397003174,
				-1.2394579648971558
			],
			"type":"VEC3"
		},
		{
			"bufferView":1,
			"componentType":5126,
			"count":1132,
			"type":"VEC3"
		},
		{
			"bufferView":2,
			"componentType":5126,
			"count":1132,
			"type":"VEC2"
		},
		{
			"bufferView":3,
			"componentType":5123,
			"count":5748,
			"type":"SCALAR"
		},
		{
			"bufferView":4,
			"componentType":5126,
			"count":2295,
			"max":[
				3,
				4.3392486572265625,
				3
			],
			"min":[
				-3,
				-4.339248180389404,
				-3
			],
			"type":"VEC3"
		},
		{
			"bufferView":5,
			"componentType":5126,
			"count":2295,
			"type":"VEC3"
		},
		{
			"bufferView":6,
			"componentType":5123,
			"count":13092,
			"type":"SCALAR"
		},
		{
			"bufferView":7,
			"componentType":5126,
			"count":1683,
			"max":[
				1.0686635971069336,
				0.15778979659080505,
				1.068663239479065
			],
			"min":[
				-1.0686630010604858,
				-0.8716143369674683,
				-1.0686638355255127
			],
			"type":"VEC3"
		},
		{
			"bufferView":8,
			"componentType":5126,
			"count":1683,
			"type":"VEC3"
		},
		{
			"bufferView":9,
			"componentType":5126,
			"count":1683,
			"type":"VEC2"
		},
		{
			"bufferView":10,
			"componentType":5123,
			"count":7680,
			"type":"SCALAR"
		},
		{
			"bufferView":11,
			"componentType":5126,
			"count":2593,
			"max":[
				1.1581010818481445,
				-0.015080571174621582,
				1.1581007242202759
			],
			"min":[
				-1.1581006050109863,
				-0.7023192644119263,
				-1.1581014394760132
			],
			"type":"VEC3"
		},
		{
			"bufferView":12,
			"componentType":5126,
			"count":2593,
			"type":"VEC3"
		},
		{
			"bufferView":13,
			"componentType":5126,
			"count":2593,
			"type":"VEC2"
		},
		{
			"bufferView":14,
			"componentType":5123,
			"count":12096,
			"type":"SCALAR"
		},
		{
			"bufferView":15,
			"componentType":5126,
			"count":2279,
			"max":[
				1.1581010818481445,
				-0.015080571174621582,
				1.1581007242202759
			],
			"min":[
				-1.1581006050109863,
				-0.7023192644119263,
				-1.1581014394760132
			],
			"type":"VEC3"
		},
		{
			"bufferView":16,
			"componentType":5126,
			"count":2279,
			"type":"VEC3"
		},
		{
			"bufferView":17,
			"componentType":5126,
			"count":2279,
			"type":"VEC2"
		},
		{
			"bufferView":18,
			"componentType":5123,
			"count":10560,
			"type":"SCALAR"
		},
		{
			"bufferView":19,
			"componentType":5126,
			"count":1850,
			"max":[
				1.0756828784942627,
				-0.016014570370316505,
				1.0770692825317383
			],
			"min":[
				-1.0784575939178467,
				-0.5920427441596985,
				-1.077069878578186
			],
			"type":"VEC3"
		},
		{
			"bufferView":20,
			"componentType":5126,
			"count":1850,
			"type":"VEC3"
		},
		{
			"bufferView":21,
			"componentType":5126,
			"count":1850,
			"type":"VEC2"
		},
		{
			"bufferView":22,
			"componentType":5123,
			"count":9216,
			"type":"SCALAR"
		},
		{
			"bufferView":23,
			"componentType":5126,
			"count":2175,
			"max":[
				1.0584220886230469,
				-0.020454159006476402,
				1.0586591958999634
			],
			"min":[
				-1.0588990449905396,
				-0.5920427441596985,
				-1.058659315109253
			],
			"type":"VEC3"
		},
		{
			"bufferView":24,
			"componentType":5126,
			"count":2175,
			"type":"VEC3"
		},
		{
			"bufferView":25,
			"componentType":5126,
			"count":2175,
			"type":"VEC2"
		},
		{
			"bufferView":26,
			"componentType":5123,
			"count":10752,
			"type":"SCALAR"
		},
		{
			"bufferView":27,
			"componentType":5126,
			"count":1132,
			"max":[
				1.2394579648971558,
				0.8976383209228516,
				1.2394579648971558
			],
			"min":[
				-1.2394579648971558,
				-0.8968937397003174,
				-1.2394579648971558
			],
			"type":"VEC3"
		},
		{
			"bufferView":28,
			"componentType":5126,
			"count":1132,
			"type":"VEC3"
		},
		{
			"bufferView":29,
			"componentType":5126,
			"count":1132,
			"type":"VEC2"
		}
	],
	"bufferViews":[
		{
			"buffer":0,
			"byteLength":13584,
			"byteOffset":0,
			"target":34962
		},
		{
			"buffer":0,
			"byteLength":13584,
			"byteOffset":13584,
			"target":34962
		},
		{
			"buffer":0,
			"byteLength":9056,
			"byteOffset":27168,
			"target":34962
		},
		{
			"buffer":0,
			"byteLength":11496,
			"byteOffset":36224,
			"target":34963
		},
		{
			"buffer":0,
			"byteLength":27540,
			"byteOffset":47720,
			"target":34962
		},
		{
			"buffer":0,
			"byteLength":27540,
			"byteOffset":75260,
			"target":34962
		},
		{
			"buffer":0,
			"byteLength":26184,
			"byteOffset":102800,
			"target":34963
		},
		{
			"buffer":0,
			"byteLength":20196,
			"byteOffset":128984,
			"target":34962
		},
		{
			"buffer":0,
			"byteLength":20196,
			"byteOffset":149180,
			"target":34962
		},
		{
			"buffer":0,
			"byteLength":13464,
			"byteOffset":169376,
			"target":34962
		},
		{
			"buffer":0,
			"byteLength":15360,
			"byteOffset":182840,
			"target":34963
		},
		{
			"buffer":0,
			"byteLength":31116,
			"byteOffset":198200,
			"target":34962
		},
		{
			"buffer":0,
			"byteLength":31116,
			"byteOffset":229316,
			"target":34962
		},
		{
			"buffer":0,
			"byteLength":20744,
			"byteOffset":260432,
			"target":34962
		},
		{
			"buffer":0,
			"byteLength":24192,
			"byteOffset":281176,
			"target":34963
		},
		{
			"buffer":0,
			"byteLength":27348,
			"byteOffset":305368,
			"target":34962
		},
		{
			"buffer":0,
			"byteLength":27348,
			"byteOffset":332716,
			"target":34962
		},
		{
			"buffer":0,
			"byteLength":18232,
			"byteOffset":360064,
			"target":34962
		},
		{
			"buffer":0,
			"byteLength":21120,
			"byteOffset":378296,
			"target":34963
		},
		{
			"buffer":0,
			"byteLength":22200,
			"byteOffset":399416,
			"target":34962
		},
		{
			"buffer":0,
			"byteLength":22200,
			"byteOffset":421616,
			"target":34962
		},
		{
			"buffer":0,
			"byteLength":14800,
			"byteOffset":443816,
			"target":34962
		},
		{
			"buffer":0,
			"byteLength":18432,
			"byteOffset":458616,
			"target":34963
		},
		{
			"buffer":0,
			"byteLength":26100,
			"byteOffset":477048,
			"target":34962
		},
		{
			"buffer":0,
			"byteLength":26100,
			"byteOffset":503148,
			"target":34962
		},
		{
			"buffer":0,
			"byteLength":17400,
			"byteOffset":529248,
			"target":34962
		},
		{
			"buffer":0,
			"byteLength":21504,
			"byteOffset":546648,
			"target":34963
		},
		{
			"buffer":0,
			"byteLength":13584,
			"byteOffset":568152,
			"target":34962
		},
		{
			"buffer":0,
			"byteLength":13584,
			"byteOffset":581736,
			"target":34962
		},
		{
			"buffer":0,
			"byteLength":9056,
			"byteOffset":595320,
			"target":34962
		}
	],
	"samplers":[
		{
			"magFilter":9729,
			"minFilter":9987
		}
	],
	"buffers":[
		{
			"byteLength":604376,
			"uri":"Bacias.bin"
		}
	]
}
