{
	"asset":{
		"generator":"Khronos glTF Blender I/O v3.6.28",
		"version":"2.0"
	},
	"extensionsUsed":[
		"KHR_materials_specular",
		"KHR_materials_ior"
	],
	"scene":0,
	"scenes":[
		{
			"name":"Scene",
			"nodes":[
				0,
				1
			]
		}
	],
	"nodes":[
		{
			"mesh":0,
			"name":"Base",
			"scale":[
				1.2736600637435913,
				0.21741127967834473,
				1.2736600637435913
			],
			"translation":[
				0,
				-0.09132474660873413,
				0
			]
		},
		{
			"mesh":1,
			"name":"Tampinha",
			"scale":[
				0.5765286087989807,
				0.5765286087989807,
				0.5765286087989807
			],
			"translation":[
				-0.0005304082296788692,
				-0.5993558764457703,
				-0.001610198407433927
			]
		}
	],
	"materials":[
		{
			"doubleSided":true,
			"extensions":{
				"KHR_materials_specular":{
					"specularColorFactor":[
						2.371357614441398,
						2.371357614441398,
						2.371357614441398
					]
				},
				"KHR_materials_ior":{
					"ior":1.4500000476837158
				}
			},
			"name":"Mat_Base",
			"pbrMetallicRoughness":{
				"baseColorFactor":[
					0.1946178376674652,
					0.2015562504529953,
					0.18447497487068176,
					1
				],
				"metallicFactor":0,
				"roughnessFactor":0.25
			}
		},
		{
			"doubleSided":true,
			"extensions":{
				"KHR_materials_specular":{
					"specularColorFactor":[
						2.371357614441398,
						2.371357614441398,
						2.371357614441398
					]
				},
				"KHR_materials_ior":{
					"ior":1.4500000476837158
				}
			},
			"name":"Mat_Tampinha",
			"pbrMetallicRoughness":{
				"baseColorFactor":[
					0.9893537163734436,
					1,
					0.8279535174369812,
					1
				],
				"metallicFactor":0,
				"roughnessFactor":0.25
			}
		}
	],
	"meshes":[
		{
			"name":"Mesh",
			"primitives":[
				{
					"attributes":{
						"POSITION":0,
						"NORMAL":1,
						"TEXCOORD_0":2
					},
					"indices":3,
					"material":0
				}
			]
		},
		{
			"name":"Cylinder.004",
			"primitives":[
				{
					"attributes":{
						"POSITION":4,
						"NORMAL":5,
						"TEXCOORD_0":6
					},
					"indices":7,
					"material":1
				}
			]
		}
	],
	"accessors":[
		{
			"bufferView":0,
			"componentType":5126,
			"count":13477,
			"max":[
				1.0066736936569214,
				4.236288070678711,
				1.0066736936569214
			],
			"min":[
				-1.0066736936569214,
				-4.2360029220581055,
				-1.0066736936569214
			],
			"type":"VEC3"
		},
		{
			"bufferView":1,
			"componentType":5126,
			"count":13477,
			"type":"VEC3"
		},
		{
			"bufferView":2,
			"componentType":5126,
			"count":13477,
			"type":"VEC2"
		},
		{
			"bufferView":3,
			"componentType":5123,
			"count":67776,
			"type":"SCALAR"
		},
		{
			"bufferView":4,
			"componentType":5126,
			"count":2239,
			"max":[
				1.2309448719024658,
				1,
				1.2309448719024658
			],
			"min":[
				-1.2309448719024658,
				-0.7172162532806396,
				-1.2309448719024658
			],
			"type":"VEC3"
		},
		{
			"bufferView":5,
			"componentType":5126,
			"count":2239,
			"type":"VEC3"
		},
		{
			"bufferView":6,
			"componentType":5126,
			"count":2239,
			"type":"VEC2"
		},
		{
			"bufferView":7,
			"componentType":5123,
			"count":8064,
			"type":"SCALAR"
		}
	],
	"bufferViews":[
		{
			"buffer":0,
			"byteLength":161724,
			"byteOffset":0,
			"target":34962
		},
		{
			"buffer":0,
			"byteLength":161724,
			"byteOffset":161724,
			"target":34962
		},
		{
			"buffer":0,
			"byteLength":107816,
			"byteOffset":323448,
			"target":34962
		},
		{
			"buffer":0,
			"byteLength":135552,
			"byteOffset":431264,
			"target":34963
		},
		{
			"buffer":0,
			"byteLength":26868,
			"byteOffset":566816,
			"target":34962
		},
		{
			"buffer":0,
			"byteLength":26868,
			"byteOffset":593684,
			"target":34962
		},
		{
			"buffer":0,
			"byteLength":17912,
			"byteOffset":620552,
			"target":34962
		},
		{
			"buffer":0,
			"byteLength":16128,
			"byteOffset":638464,
			"target":34963
		}
	],
	"buffers":[
		{
			"byteLength":654592,
			"uri":"Base.bin"
		}
	]
}
