{
	"asset":{
		"generator":"Khronos glTF Blender I/O v3.6.28",
		"version":"2.0"
	},
	"extensionsUsed":[
		"KHR_materials_specular",
		"KHR_materials_ior"
	],
	"scene":0,
	"scenes":[
		{
			"name":"Scene",
			"nodes":[
				0,
				1,
				2
			]
		}
	],
	"nodes":[
		{
			"mesh":0,
			"name":"Cylinder.004",
			"rotation":[
				-0.7070609331130981,
				-0.008052554912865162,
				0.008052553981542587,
				0.7070609331130981
			],
			"scale":[
				0.9822113513946533,
				0.2630847990512848,
				0.9822113513946533
			],
			"translation":[
				0,
				0,
				-0.056599412113428116
			]
		},
		{
			"mesh":1,
			"name":"Cylinder.006",
			"rotation":[
				-0.7070609331130981,
				0.008052553981542587,
				-0.008052553050220013,
				0.7070609331130981
			],
			"scale":[
				1,
				0.5569585561752319,
				1
			],
			"translation":[
				0,
				0,
				0.13873206079006195
			]
		},
		{
			"mesh":2,
			"name":"Cylinder.007",
			"rotation":[
				0.7071068286895752,
				0,
				0,
				0.7071068286895752
			],
			"translation":[
				0,
				0,
				-0.1936812400817871
			]
		}
	],
	"materials":[
		{
			"doubleSided":true,
			"extensions":{
				"KHR_materials_specular":{
					"specularColorFactor":[
						2.371357614441398,
						2.371357614441398,
						2.371357614441398
					]
				},
				"KHR_materials_ior":{
					"ior":1.4500000476837158
				}
			},
			"name":"Material",
			"normalTexture":{
				"index":0
			},
			"pbrMetallicRoughness":{
				"baseColorFactor":[
					0.1384316086769104,
					0.11698690801858902,
					0.07421357929706573,
					1
				],
				"roughnessFactor":0.30000001192092896
			}
		}
	],
	"meshes":[
		{
			"name":"Cylinder.004",
			"primitives":[
				{
					"attributes":{
						"POSITION":0,
						"NORMAL":1,
						"TEXCOORD_0":2
					},
					"indices":3,
					"material":0
				}
			]
		},
		{
			"name":"Cylinder.006",
			"primitives":[
				{
					"attributes":{
						"POSITION":4,
						"NORMAL":5,
						"TEXCOORD_0":6
					},
					"indices":7,
					"material":0
				},
				{
					"attributes":{
						"POSITION":8,
						"NORMAL":9,
						"TEXCOORD_0":10
					},
					"indices":11,
					"material":0
				}
			]
		},
		{
			"name":"Cylinder.008",
			"primitives":[
				{
					"attributes":{
						"POSITION":12,
						"NORMAL":13,
						"TEXCOORD_0":14
					},
					"indices":15,
					"material":0
				}
			]
		}
	],
	"textures":[
		{
			"sampler":0,
			"source":0
		}
	],
	"images":[
		{
			"mimeType":"image/png",
			"name":"Normal",
			"uri":"Normal.png"
		}
	],
	"accessors":[
		{
			"bufferView":0,
			"componentType":5126,
			"count":3450,
			"max":[
				1.2967828512191772,
				0.838680624961853,
				1.2967828512191772
			],
			"min":[
				-1.2967828512191772,
				-0.838680624961853,
				-1.2967828512191772
			],
			"type":"VEC3"
		},
		{
			"bufferView":1,
			"componentType":5126,
			"count":3450,
			"type":"VEC3"
		},
		{
			"bufferView":2,
			"componentType":5126,
			"count":3450,
			"type":"VEC2"
		},
		{
			"bufferView":3,
			"componentType":5123,
			"count":10560,
			"type":"SCALAR"
		},
		{
			"bufferView":4,
			"componentType":5126,
			"count":513,
			"max":[
				0.8974826335906982,
				0.08176440000534058,
				0.8974826335906982
			],
			"min":[
				-0.8974826335906982,
				-0.08194805681705475,
				-0.8974826335906982
			],
			"type":"VEC3"
		},
		{
			"bufferView":5,
			"componentType":5126,
			"count":513,
			"type":"VEC3"
		},
		{
			"bufferView":6,
			"componentType":5126,
			"count":513,
			"type":"VEC2"
		},
		{
			"bufferView":7,
			"componentType":5123,
			"count":1563,
			"type":"SCALAR"
		},
		{
			"bufferView":8,
			"componentType":5126,
			"count":257,
			"max":[
				0.38477692008018494,
				-0.01054275780916214,
				0.7169865965843201
			],
			"min":[
				-0.3847767412662506,
				-0.0815587267279625,
				-0.7169869542121887
			],
			"type":"VEC3"
		},
		{
			"bufferView":9,
			"componentType":5126,
			"count":257,
			"type":"VEC3"
		},
		{
			"bufferView":10,
			"componentType":5126,
			"count":257,
			"type":"VEC2"
		},
		{
			"bufferView":11,
			"componentType":5123,
			"count":387,
			"type":"SCALAR"
		},
		{
			"bufferView":12,
			"componentType":5126,
			"count":1261,
			"max":[
				0.8969001173973083,
				0.436046302318573,
				0.8969000577926636
			],
			"min":[
				-0.8969001173973083,
				-0.07681570947170258,
				-0.8969001770019531
			],
			"type":"VEC3"
		},
		{
			"bufferView":13,
			"componentType":5126,
			"count":1261,
			"type":"VEC3"
		},
		{
			"bufferView":14,
			"componentType":5126,
			"count":1261,
			"type":"VEC2"
		},
		{
			"bufferView":15,
			"componentType":5123,
			"count":3720,
			"type":"SCALAR"
		}
	],
	"bufferViews":[
		{
			"buffer":0,
			"byteLength":41400,
			"byteOffset":0,
			"target":34962
		},
		{
			"buffer":0,
			"byteLength":41400,
			"byteOffset":41400,
			"target":34962
		},
		{
			"buffer":0,
			"byteLength":27600,
			"byteOffset":82800,
			"target":34962
		},
		{
			"buffer":0,
			"byteLength":21120,
			"byteOffset":110400,
			"target":34963
		},
		{
			"buffer":0,
			"byteLength":6156,
			"byteOffset":131520,
			"target":34962
		},
		{
			"buffer":0,
			"byteLength":6156,
			"byteOffset":137676,
			"target":34962
		},
		{
			"buffer":0,
			"byteLength":4104,
			"byteOffset":143832,
			"target":34962
		},
		{
			"buffer":0,
			"byteLength":3126,
			"byteOffset":147936,
			"target":34963
		},
		{
			"buffer":0,
			"byteLength":3084,
			"byteOffset":151064,
			"target":34962
		},
		{
			"buffer":0,
			"byteLength":3084,
			"byteOffset":154148,
			"target":34962
		},
		{
			"buffer":0,
			"byteLength":2056,
			"byteOffset":157232,
			"target":34962
		},
		{
			"buffer":0,
			"byteLength":774,
			"byteOffset":159288,
			"target":34963
		},
		{
			"buffer":0,
			"byteLength":15132,
			"byteOffset":160064,
			"target":34962
		},
		{
			"buffer":0,
			"byteLength":15132,
			"byteOffset":175196,
			"target":34962
		},
		{
			"buffer":0,
			"byteLength":10088,
			"byteOffset":190328,
			"target":34962
		},
		{
			"buffer":0,
			"byteLength":7440,
			"byteOffset":200416,
			"target":34963
		}
	],
	"samplers":[
		{
			"magFilter":9729,
			"minFilter":9987
		}
	],
	"buffers":[
		{
			"byteLength":207856,
			"uri":"Catraca%20RL%2016.bin"
		}
	]
}
